<svg width="21" height="36" viewBox="0 0 21 36" fill="none" xmlns="http://www.w3.org/2000/svg">
<path d="M0.832979 0.929495C0.336836 1.43363 0.0581168 2.11729 0.0581168 2.83013C0.0581168 3.54297 0.336836 4.22663 0.832979 4.73076L13.9332 18.0379L0.832978 31.345C0.350895 31.852 0.0841413 32.5311 0.0901723 33.236C0.0962014 33.9409 0.374531 34.6151 0.865216 35.1135C1.3559 35.612 2.01968 35.8947 2.71358 35.9008C3.40749 35.907 4.076 35.636 4.57514 35.1463L19.5464 19.9385C20.0426 19.4344 20.3213 18.7507 20.3213 18.0379C20.3213 17.3251 20.0426 16.6414 19.5464 16.1373L4.57514 0.929495C4.07884 0.425515 3.40582 0.142394 2.70406 0.142394C2.0023 0.142394 1.32927 0.425515 0.832979 0.929495Z" fill="black"/>
</svg>
